<?xml version="1.0" encoding="utf-8"?>
<svg xmlns="http://www.w3.org/2000/svg" xmlns:xlink="http://www.w3.org/1999/xlink" width="1923" height="1429" viewBox="0 0 1923 1429">
  <defs>
    <style>.a{fill:#fff;stroke:#707070;}.b{fill:#eef5ff;}.c{fill:none;}.d{clip-path:url(#a);}.e{clip-path:url(#b);}.f{fill:#f4f7fd;}.g{clip-path:url(#c);}.h{clip-path:url(#d);}.i{fill:#dde9f7;}.j{fill:url(#e);}.k{fill:url(#f);}.l{fill:url(#g);}.m{fill:url(#h);}.n{fill:url(#i);}.o{fill:url(#j);}.p{fill:url(#k);}.q{fill:#dfebf8;}.r{clip-path:url(#t);}.s{fill:#00b563;}.t{fill:url(#u);}.u{fill:url(#v);}.v{fill:url(#w);}.w{fill:url(#x);}.x{fill:url(#y);}.y{fill:url(#z);}.z{fill:url(#aa);}</style>
    <clipPath id="a">
      <rect class="a" width="1923" height="1429" transform="translate(-1 131)" />
    </clipPath>
    <clipPath id="b">
      <rect class="b" width="1920" height="1470" />
    </clipPath>
    <clipPath id="c">
      <rect class="a" width="1911" height="677" transform="translate(674.249 4464.518)" />
    </clipPath>
    <clipPath id="d">
      <path class="c" d="M5833.707,2552.824,3575.334,1248.7a75.249,75.249,0,0,0-75.259,0L1241.7,2552.824a75.288,75.288,0,0,0-37.628,65.194V5226.264a75.3,75.3,0,0,0,37.628,65.193L3500.076,6595.569a75.26,75.26,0,0,0,75.259,0L5833.707,5291.457a75.3,75.3,0,0,0,37.628-65.193V2618.018A75.285,75.285,0,0,0,5833.707,2552.824ZM4574.747,4477.533a75.263,75.263,0,0,1-37.63,65.183l-961.782,555.392a75.248,75.248,0,0,1-75.259,0L2538.3,4542.715a75.267,75.267,0,0,1-37.63-65.183V3366.75a75.266,75.266,0,0,1,37.63-65.184l961.772-555.393a75.25,75.25,0,0,1,75.259,0l961.782,555.381a75.3,75.3,0,0,1,37.63,65.2Z" transform="translate(-1204.073 -1238.617)" />
    </clipPath>
    <linearGradient id="e" x1="0.997" y1="0.252" x2="0" y2="0.752" gradientUnits="objectBoundingBox">
      <stop offset="0" stop-color="#f4faff" stop-opacity="0" />
      <stop offset="1" stop-color="#f4faff" stop-opacity="0.675" />
    </linearGradient>
    <linearGradient id="f" x1="1" y1="0.248" x2="0" y2="0.752" gradientUnits="objectBoundingBox">
      <stop offset="0.001" stop-color="#f4faff" stop-opacity="0" />
      <stop offset="1" stop-color="#f4faff" stop-opacity="0.675" />
    </linearGradient>
    <linearGradient id="g" x1="0.75" y1="0.123" x2="0.25" y2="0.88" gradientUnits="objectBoundingBox">
      <stop offset="0" stop-color="#f4faff" stop-opacity="0" />
      <stop offset="0.063" stop-color="#f3f9ff" stop-opacity="0.063" />
      <stop offset="0.301" stop-color="#f1f7ff" stop-opacity="0.278" />
      <stop offset="0.522" stop-color="#eff6ff" stop-opacity="0.451" />
      <stop offset="0.719" stop-color="#eef5ff" stop-opacity="0.573" />
      <stop offset="0.885" stop-color="#eef5ff" stop-opacity="0.647" />
      <stop offset="1" stop-color="#eef5ff" stop-opacity="0.675" />
    </linearGradient>
    <linearGradient id="h" x1="0.25" y1="0.121" x2="0.75" y2="0.879" gradientUnits="objectBoundingBox">
      <stop offset="0.47" stop-color="#f4faff" stop-opacity="0" />
      <stop offset="1" stop-color="#f4faff" stop-opacity="0.675" />
    </linearGradient>
    <linearGradient id="i" x1="0.003" y1="0.748" x2="1" y2="0.248" xlink:href="#e" />
    <linearGradient id="j" x1="0.2" y1="0.873" x2="0.8" y2="0.127" xlink:href="#e" />
    <linearGradient id="k" x1="0.75" y1="0.874" x2="0.25" y2="0.121" gradientUnits="objectBoundingBox">
      <stop offset="0.44" stop-color="#f4faff" stop-opacity="0" />
      <stop offset="1" stop-color="#f4faff" stop-opacity="0.675" />
    </linearGradient>
    <clipPath id="t">
      <path class="c" d="M4424.688,2277.536,2638.821,1246.588a59.521,59.521,0,0,0-59.513,0L793.439,2277.536a59.51,59.51,0,0,0-29.756,51.538v2061.9a59.522,59.522,0,0,0,29.756,51.537L2579.307,5473.447a59.536,59.536,0,0,0,59.513,0L4424.688,4442.507a59.521,59.521,0,0,0,29.757-51.537v-2061.9A59.509,59.509,0,0,0,4424.688,2277.536ZM3429.133,3799.075a59.5,59.5,0,0,1-29.757,51.53l-760.555,439.053a59.519,59.519,0,0,1-59.513,0L1818.761,3850.6a59.5,59.5,0,0,1-29.756-51.53V2920.968a59.5,59.5,0,0,1,29.756-51.53l760.547-439.053a59.52,59.52,0,0,1,59.513,0l760.555,439.044a59.522,59.522,0,0,1,29.757,51.539Z" transform="translate(-763.683 -1238.616)" />
    </clipPath>
    <linearGradient id="u" x1="0.997" y1="0.252" x2="0" y2="0.752" gradientUnits="objectBoundingBox">
      <stop offset="0" stop-color="#00d364" stop-opacity="0" />
      <stop offset="1" stop-color="#00d364" stop-opacity="0.675" />
    </linearGradient>
    <linearGradient id="v" x1="1" y1="0.248" x2="0" y2="0.752" gradientUnits="objectBoundingBox">
      <stop offset="0.001" stop-color="#00d364" stop-opacity="0" />
      <stop offset="1" stop-color="#00d364" stop-opacity="0.675" />
    </linearGradient>
    <linearGradient id="w" x1="0.75" y1="0.123" x2="0.25" y2="0.88" gradientUnits="objectBoundingBox">
      <stop offset="0" stop-color="#00d364" stop-opacity="0" />
      <stop offset="0.209" stop-color="#00d364" stop-opacity="0.2" />
      <stop offset="0.457" stop-color="#00d364" stop-opacity="0.404" />
      <stop offset="0.681" stop-color="#00d364" stop-opacity="0.553" />
      <stop offset="0.869" stop-color="#00d364" stop-opacity="0.643" />
      <stop offset="1" stop-color="#00d364" stop-opacity="0.675" />
    </linearGradient>
    <linearGradient id="x" x1="0.25" y1="0.121" x2="0.75" y2="0.879" gradientUnits="objectBoundingBox">
      <stop offset="0.47" stop-color="#00d364" stop-opacity="0" />
      <stop offset="1" stop-color="#00d364" stop-opacity="0.675" />
    </linearGradient>
    <linearGradient id="y" x1="0.003" y1="0.748" x2="1" y2="0.248" xlink:href="#u" />
    <linearGradient id="z" x1="0.2" y1="0.873" x2="0.8" y2="0.127" xlink:href="#u" />
    <linearGradient id="aa" x1="0.75" y1="0.874" x2="0.25" y2="0.121" gradientUnits="objectBoundingBox">
      <stop offset="0.44" stop-color="#00d364" stop-opacity="0" />
      <stop offset="1" stop-color="#00d364" stop-opacity="0.675" />
    </linearGradient>
  </defs>
  <g class="d" transform="translate(1 -131)">
    <g class="e" transform="translate(-1 129)">
      <path class="f" d="M0,0H1920V1537.2H0Z" />
      <g transform="translate(-664.249 -3680.518)">
        <g class="g">
          <g class="h" transform="translate(-3 -37)">
            <path class="i" d="M3537.707,6627.948l2333.632-1347.58V2585.2L3537.706,1237.621,1204.073,2585.2l0,2695.164,2333.632,1347.58Z" transform="translate(-1204.072 -1249.261)" />
            <path class="j" d="M2927.044,5140.769l1610.073-929.757a75.262,75.262,0,0,0,37.63-65.182V2286.315a75.283,75.283,0,0,0-37.63-65.194L2889.4,1269.64,1241.7,2221.121a75.289,75.289,0,0,0-37.628,65.194V4189.289l1647.7,951.48A75.265,75.265,0,0,0,2927.044,5140.769Z" transform="translate(-1204.073 -906.913)" />
            <path class="k" d="M4630.206,4167.195V2264.221L2982.493,1312.74a75.25,75.25,0,0,0-75.259,0L1297.162,2242.486a75.3,75.3,0,0,0-37.63,65.194V4210.654l1647.7,951.479a75.241,75.241,0,0,0,75.259,0l1610.072-929.756A75.275,75.275,0,0,0,4630.206,4167.195Z" transform="translate(-611.232 -553.913)" />
            <path class="l" d="M2982.512,5098.08l1647.7-951.493V2243.624a75.266,75.266,0,0,0-37.628-65.194L2982.512,1248.673a75.271,75.271,0,0,0-75.27,0l-1647.7,951.493V4103.128a75.265,75.265,0,0,0,37.64,65.193L2907.254,5098.08Z" transform="translate(-611.136 -1238.915)" />
            <path class="m" d="M2389.652,3792.749l961.782-555.379a75.3,75.3,0,0,0,37.63-65.194V2061.392a75.264,75.264,0,0,0-37.63-65.184l-961.782-555.391a75.241,75.241,0,0,0-75.259,0l-961.773,555.391a75.273,75.273,0,0,0-37.63,65.2V3172.176a75.3,75.3,0,0,0,37.63,65.194l961.773,555.379A75.241,75.241,0,0,0,2389.652,3792.749Z" transform="translate(-18.39 815.472)" />
            <path class="n" d="M3000.322,5215.889l1647.7-951.481a75.3,75.3,0,0,0,37.628-65.193V2296.24l-1647.7-951.481a75.249,75.249,0,0,0-75.259,0L1352.621,2274.517a75.266,75.266,0,0,0-37.63,65.184V4199.214a75.3,75.3,0,0,0,37.63,65.193Z" transform="translate(-18.39 -211.568)" />
            <path class="o" d="M2982.493,5226.173l1647.712-951.481V2371.718a75.275,75.275,0,0,0-37.64-65.182L2982.493,1376.778a75.249,75.249,0,0,0-75.259,0l-1647.7,951.481V4274.692l1647.7,951.481A75.258,75.258,0,0,0,2982.493,5226.173Z" transform="translate(-611.232 130.779)" />
            <path class="p" d="M2352.022,3686.4l999.413-577.118a75.278,75.278,0,0,0,37.63-65.194V1933.314a75.283,75.283,0,0,0-37.63-65.194L2389.652,1312.74a75.249,75.249,0,0,0-75.259,0L1352.621,1868.12a75.287,75.287,0,0,0-37.63,65.194V3044.087a75.282,75.282,0,0,0,37.63,65.194l999.4,577.118Z" transform="translate(-18.39 -553.913)" />
          </g>
        </g>
        <rect class="q" width="1400" height="688" transform="translate(665.249 3661.518)" />
      </g>
      <g transform="translate(-1908.249 -3386.518)">
        <g class="h">
          <path class="i" d="M3537.707,6627.948l2333.632-1347.58V2585.2L3537.706,1237.621,1204.073,2585.2l0,2695.164,2333.632,1347.58Z" transform="translate(-1204.072 -1249.261)" />
          <path class="j" d="M2927.044,5140.769l1610.073-929.757a75.262,75.262,0,0,0,37.63-65.182V2286.315a75.283,75.283,0,0,0-37.63-65.194L2889.4,1269.64,1241.7,2221.121a75.289,75.289,0,0,0-37.628,65.194V4189.289l1647.7,951.48A75.265,75.265,0,0,0,2927.044,5140.769Z" transform="translate(-1204.073 -906.913)" />
          <path class="k" d="M4630.206,4167.195V2264.221L2982.493,1312.74a75.25,75.25,0,0,0-75.259,0L1297.162,2242.486a75.3,75.3,0,0,0-37.63,65.194V4210.654l1647.7,951.479a75.241,75.241,0,0,0,75.259,0l1610.072-929.756A75.275,75.275,0,0,0,4630.206,4167.195Z" transform="translate(-611.232 -553.913)" />
          <path class="l" d="M2982.512,5098.08l1647.7-951.493V2243.624a75.266,75.266,0,0,0-37.628-65.194L2982.512,1248.673a75.271,75.271,0,0,0-75.27,0l-1647.7,951.493V4103.128a75.265,75.265,0,0,0,37.64,65.193L2907.254,5098.08Z" transform="translate(-611.136 -1238.915)" />
          <path class="m" d="M2389.652,3792.749l961.782-555.379a75.3,75.3,0,0,0,37.63-65.194V2061.392a75.264,75.264,0,0,0-37.63-65.184l-961.782-555.391a75.241,75.241,0,0,0-75.259,0l-961.773,555.391a75.273,75.273,0,0,0-37.63,65.2V3172.176a75.3,75.3,0,0,0,37.63,65.194l961.773,555.379A75.241,75.241,0,0,0,2389.652,3792.749Z" transform="translate(-18.39 815.472)" />
          <path class="n" d="M3000.322,5215.889l1647.7-951.481a75.3,75.3,0,0,0,37.628-65.193V2296.24l-1647.7-951.481a75.249,75.249,0,0,0-75.259,0L1352.621,2274.517a75.266,75.266,0,0,0-37.63,65.184V4199.214a75.3,75.3,0,0,0,37.63,65.193Z" transform="translate(-18.39 -211.568)" />
          <path class="o" d="M2982.493,5226.173l1647.712-951.481V2371.718a75.275,75.275,0,0,0-37.64-65.182L2982.493,1376.778a75.249,75.249,0,0,0-75.259,0l-1647.7,951.481V4274.692l1647.7,951.481A75.258,75.258,0,0,0,2982.493,5226.173Z" transform="translate(-611.232 130.779)" />
          <path class="p" d="M2352.022,3686.4l999.413-577.118a75.278,75.278,0,0,0,37.63-65.194V1933.314a75.283,75.283,0,0,0-37.63-65.194L2389.652,1312.74a75.249,75.249,0,0,0-75.259,0L1352.621,1868.12a75.287,75.287,0,0,0-37.63,65.194V3044.087a75.282,75.282,0,0,0,37.63,65.194l999.4,577.118Z" transform="translate(-18.39 -553.913)" />
        </g>
      </g>
    </g>
    <g transform="translate(-410.881 -3326.801)">
      <g class="r">
        <path class="s" d="M2609.067,5498.834l1845.38-1065.3V2302.923L2609.066,1237.62,763.683,2302.924V4433.532l1845.382,1065.3Z" transform="translate(-763.683 -1246.822)" />
        <path class="t" d="M2126.169,4329.882l1273.207-735a59.5,59.5,0,0,0,29.757-51.53v-1470a59.509,59.509,0,0,0-29.757-51.538L2096.4,1269.639,793.439,2021.813a59.51,59.51,0,0,0-29.756,51.538V3577.708l1302.964,752.173A59.533,59.533,0,0,0,2126.169,4329.882Z" transform="translate(-763.683 -982.893)" />
        <path class="u" d="M3484.581,3567.157V2062.8L2181.618,1310.626a59.526,59.526,0,0,0-59.513,0L848.9,2045.618a59.52,59.52,0,0,0-29.756,51.538V3601.514L2122.1,4353.687a59.524,59.524,0,0,0,59.513,0l1273.207-735A59.492,59.492,0,0,0,3484.581,3567.157Z" transform="translate(-306.481 -710.751)" />
        <path class="v" d="M2181.637,4289.631,3484.6,3537.447V2033.1a59.5,59.5,0,0,0-29.756-51.537l-1273.207-735a59.537,59.537,0,0,0-59.522,0L819.15,1998.744V3503.092a59.511,59.511,0,0,0,29.757,51.538l1273.208,735Z" transform="translate(-306.406 -1238.847)" />
        <path class="w" d="M1724.417,3297.976l760.547-439.044a59.511,59.511,0,0,0,29.765-51.537V1929.286a59.485,59.485,0,0,0-29.765-51.529L1724.417,1438.7a59.522,59.522,0,0,0-59.514,0L904.357,1877.757A59.5,59.5,0,0,0,874.6,1929.3v878.1a59.522,59.522,0,0,0,29.756,51.537L1664.9,3297.976A59.525,59.525,0,0,0,1724.417,3297.976Z" transform="translate(150.721 344.959)" />
        <path class="x" d="M2207.321,4402.889l1302.963-752.173a59.521,59.521,0,0,0,29.757-51.537V2094.82L2237.077,1342.646a59.521,59.521,0,0,0-59.513,0l-1273.208,735a59.5,59.5,0,0,0-29.756,51.53v1470a59.522,59.522,0,0,0,29.756,51.537Z" transform="translate(150.721 -446.824)" />
        <path class="y" d="M2181.618,4417.727l1302.963-752.175V2161.194a59.493,59.493,0,0,0-29.756-51.528l-1273.207-735a59.521,59.521,0,0,0-59.513,0L819.142,2126.839V3665.552L2122.1,4417.727A59.533,59.533,0,0,0,2181.618,4417.727Z" transform="translate(-306.481 -182.896)" />
        <path class="z" d="M1694.66,3187.074l790.3-456.228a59.5,59.5,0,0,0,29.765-51.538v-878.1a59.5,59.5,0,0,0-29.765-51.538l-760.547-439.045a59.526,59.526,0,0,0-59.514,0L904.357,1749.671a59.51,59.51,0,0,0-29.756,51.538v878.1a59.51,59.51,0,0,0,29.756,51.538l790.3,456.228Z" transform="translate(150.721 -710.751)" />
      </g>
    </g>
  </g>
</svg>